<svg width="63" height="59" viewBox="0 0 63 59" fill="none" xmlns="http://www.w3.org/2000/svg">
<path d="M61.251 6.80859V6.60859H61.051H44.9372C44.5073 6.60859 44.1627 6.26332 44.1627 5.84131C44.1627 5.41949 44.5086 5.07402 44.9372 5.07402H62.0255C62.4541 5.07402 62.8 5.41949 62.8 5.84131V58.0326C62.8 58.4548 62.4552 58.7999 62.0269 58.7999H0.974513C0.544636 58.7999 0.2 58.4546 0.2 58.0326V5.84131C0.2 5.41987 0.544124 5.07532 0.974795 5.07402H18.0614C18.49 5.07402 18.8359 5.41949 18.8359 5.84131C18.8359 6.26438 18.4902 6.60859 18.0614 6.60859H1.94756H1.74756V6.80859V57.0653V57.2653H1.94756H61.051H61.251V57.0653V6.80859Z" fill="#4F4F4F" stroke="white" stroke-width="0.4"/>
<path d="M23.0171 1.73312H22.8171V1.93312V7.05088V7.25088H23.0171H39.9827H40.1827V7.05088V1.93312V1.73312H39.9827H23.0171ZM41.7317 8.01816C41.7317 8.43998 41.3858 8.78545 40.9572 8.78545H22.0426C21.614 8.78545 21.2681 8.43998 21.2681 8.01816V0.967284C21.2681 0.544213 21.6138 0.2 22.0426 0.2H40.9572C41.3858 0.2 41.7317 0.545469 41.7317 0.967284V8.01816Z" fill="#4F4F4F" stroke="white" stroke-width="0.4"/>
<path d="M21.2493 33.5475C21.5006 33.868 21.6541 34.4742 21.5839 34.8701C20.6649 40.1169 22.18 46.6327 24.1466 48.9545C24.6433 49.5403 25.1562 49.8362 25.6748 49.8362C27.3521 49.8362 27.7656 47.2635 28.2433 44.2863C28.7284 41.2669 29.2778 37.8459 31.0821 37.843C32.888 37.8459 33.4373 41.2684 33.9224 44.2863C34.4002 47.265 34.8136 49.8376 36.4909 49.8376C36.9906 49.8376 37.4873 49.5505 37.9666 48.9864C39.92 46.6805 41.4979 40.0415 40.6037 34.9383C40.5351 34.5438 40.6885 33.942 40.9398 33.6244C42.8026 31.2634 44.062 28.1832 44.3104 25.3858C44.5471 22.7218 43.9393 20.5189 42.5542 19.0179C41.3533 17.7171 39.6058 16.9993 37.6334 16.9993C36.5435 16.9993 35.4433 17.2124 34.3636 17.6316C34.2 17.6954 34.0407 17.7606 33.88 17.8259C33.0648 18.1609 32.2948 18.4756 31.0938 18.506C29.8695 18.4756 29.0981 18.1609 28.2828 17.8259C28.1221 17.7606 27.9628 17.6939 27.7992 17.6316C26.7195 17.2124 25.6193 16.9993 24.5294 16.9993C22.557 16.9993 20.8096 17.7157 19.6086 19.0179C18.2235 20.5189 17.6157 22.7218 17.8524 25.3858C18.1987 29.2665 20.3435 32.3859 21.2493 33.5475ZM20.3479 19.6836C21.3575 18.5901 22.8419 17.9883 24.5308 17.9883C25.482 17.9883 26.4857 18.1826 27.4354 18.5524C27.5932 18.6133 27.7466 18.6771 27.9015 18.741C28.7649 19.0948 29.6591 19.4617 31.0938 19.4965C32.5052 19.4617 33.3979 19.0963 34.2614 18.741C34.4162 18.6771 34.5711 18.6148 34.7274 18.5524C35.6771 18.1841 36.6823 17.9883 37.632 17.9883C39.3195 17.9883 40.8054 18.5901 41.8149 19.685C43.0057 20.9757 43.5229 22.9161 43.3125 25.2959C42.9692 29.1694 40.8054 32.18 40.1508 33.0095C39.7227 33.5519 39.4992 34.4336 39.6161 35.1065C40.5219 40.2808 38.7614 46.5022 37.1981 48.3454C36.9292 48.6615 36.6706 48.8428 36.488 48.8428C35.664 48.8428 35.2446 46.2295 34.9071 44.1282C34.3593 40.7173 33.7383 36.8525 31.0792 36.8482C28.4216 36.8525 27.8006 40.7188 27.2528 44.1282C26.9153 46.2281 26.4959 48.8428 25.6719 48.8428C25.4718 48.8428 25.1942 48.6499 24.9093 48.3149C23.3328 46.4543 21.6365 40.3577 22.5672 35.0398C22.6841 34.3669 22.462 33.4837 22.0368 32.9399C21.3721 32.0886 19.1791 29.02 18.8474 25.2959C18.6399 22.9146 19.1571 20.9743 20.3479 19.6836Z" fill="#4F4F4F"/>
<path d="M23.5257 22.6189C24.62 22.6189 25.6398 23.1293 26.3002 23.9864C26.0869 24.2663 25.894 24.565 25.7304 24.8855C25.6047 25.1306 25.7026 25.4294 25.9495 25.5526C26.195 25.6773 26.4974 25.5802 26.6216 25.3351C27.4792 23.6587 29.1886 22.6174 31.0822 22.6174C32.9757 22.6174 34.6851 23.6601 35.5442 25.3365C35.6318 25.5091 35.8086 25.6077 35.9898 25.6077C36.0658 25.6077 36.1432 25.5903 36.2162 25.5541C36.4632 25.4294 36.5611 25.1306 36.4354 24.887C36.2703 24.565 36.0774 24.2648 35.8641 23.985C36.5245 23.1279 37.5458 22.6174 38.6387 22.6174C38.9148 22.6174 39.1383 22.3955 39.1383 22.1214C39.1383 21.8474 38.9148 21.6255 38.6387 21.6255C37.296 21.6255 36.0365 22.2201 35.1848 23.2309C34.0934 22.2128 32.6396 21.6255 31.0807 21.6255C29.5232 21.6255 28.0695 22.2128 26.9766 23.2309C26.1248 22.2186 24.8654 21.6255 23.5227 21.6255C23.2466 21.6255 23.0231 21.8474 23.0231 22.1214C23.026 22.397 23.2495 22.6189 23.5257 22.6189Z" fill="#4F4F4F"/>
</svg>
