<svg width="57" height="47" viewBox="0 0 57 47" fill="none" xmlns="http://www.w3.org/2000/svg">
<path d="M38.5219 1.99485L38.5219 1.99491L40.6807 5.73292C40.6807 5.73294 40.6808 5.73296 40.6808 5.73298C41.0542 6.37993 41.7531 6.78 42.5038 6.78H53.2C55.1871 6.78 56.8 8.37896 56.8 10.34V43.24C56.8 45.201 55.1871 46.8 53.2 46.8H3.8C1.81291 46.8 0.2 45.201 0.2 43.24V10.34C0.2 8.37896 1.81291 6.78 3.8 6.78H5.7H5.9V6.58V4.7C5.9 3.77604 6.66034 3.02 7.6 3.02H11.4C12.3397 3.02 13.1 3.77604 13.1 4.7V6.58V6.78H13.3H14.4962C15.2469 6.78 15.9451 6.37985 16.3184 5.73298C16.3185 5.73296 16.3185 5.73294 16.3185 5.73292L18.4773 1.99494C19.1165 0.888623 20.3145 0.2 21.6038 0.2H35.3962C36.6855 0.2 37.8834 0.888632 38.5219 1.99485ZM7.6 4.5H7.4V4.7V6.58V6.78H7.6H11.4H11.6V6.58V4.7V4.5H11.4H7.6ZM53.2 45.32C54.3567 45.32 55.3 44.3887 55.3 43.24V10.34C55.3 9.19126 54.3567 8.26 53.2 8.26H42.5038C41.2145 8.26 40.0165 7.57138 39.3773 6.46506L37.2185 2.72708C37.2185 2.72706 37.2185 2.72704 37.2184 2.72703C36.845 2.08007 36.1461 1.68 35.3954 1.68H21.6038C20.8531 1.68 20.1549 2.08015 19.7816 2.72703C19.7816 2.72704 19.7815 2.72706 19.7815 2.72708L17.6227 6.46506C16.9835 7.57138 15.7855 8.26 14.4962 8.26H3.8C2.64332 8.26 1.7 9.19126 1.7 10.34V43.24C1.7 44.3887 2.64332 45.32 3.8 45.32H53.2ZM46.75 13.16C46.75 11.7175 47.937 10.54 49.4 10.54C50.863 10.54 52.05 11.7175 52.05 13.16C52.05 14.6024 50.863 15.78 49.4 15.78C47.937 15.78 46.75 14.6024 46.75 13.16ZM48.25 13.16C48.25 13.791 48.7675 14.3 49.4 14.3C50.0325 14.3 50.55 13.791 50.55 13.16C50.55 12.5289 50.0325 12.02 49.4 12.02C48.7675 12.02 48.25 12.5289 48.25 13.16ZM13.5 26.3199C13.5 18.1392 20.2271 11.4799 28.5 11.4799C36.7729 11.4799 43.5 18.1392 43.5 26.3199C43.5 34.5006 36.7729 41.1599 28.5 41.1599C20.2271 41.1599 13.5 34.5006 13.5 26.3199ZM15 26.3199C15 33.6892 21.0575 39.6799 28.5 39.6799C35.9425 39.6799 42 33.6892 42 26.3199C42 18.9507 35.9425 12.9599 28.5 12.9599C21.0575 12.9599 15 18.9507 15 26.3199ZM17.3 26.32C17.3 20.212 22.3226 15.24 28.5 15.24C34.6774 15.24 39.7 20.212 39.7 26.32C39.7 32.428 34.6774 37.4 28.5 37.4C22.3226 37.4 17.3 32.428 17.3 26.32ZM18.8 26.32C18.8 31.615 23.1531 35.92 28.5 35.92C33.8469 35.92 38.2 31.615 38.2 26.32C38.2 21.025 33.8469 16.72 28.5 16.72C23.1531 16.72 18.8 21.025 18.8 26.32ZM8.74999 12.2199C8.74999 11.813 9.08357 11.4799 9.49999 11.4799C9.91642 11.4799 10.25 11.813 10.25 12.2199V41.3599C10.25 41.7668 9.91642 42.0999 9.49999 42.0999C9.08357 42.0999 8.74999 41.7668 8.74999 41.3599V12.2199Z" fill="#4F4F4F" stroke="white" stroke-width="0.4"/>
</svg>
