<svg width="59" height="54" viewBox="0 0 59 54" fill="none" xmlns="http://www.w3.org/2000/svg">
<path d="M51.1466 31.8567C50.98 31.8567 50.8301 31.7895 50.6968 31.6719C50.4469 31.4199 50.4469 31.0335 50.6968 30.7815L54.3949 27.0686C60.625 20.7851 57.2601 12.5024 52.4625 7.31101C50.7801 5.47974 48.8811 3.95088 46.9987 2.87564C44.2501 1.31318 36.5708 -0.450885 31.64 4.3877L20.5624 15.5097C19.7462 16.3329 20.096 16.8874 20.4292 17.2234C21.6619 18.4834 25.6431 19.1219 28.0586 16.7194L30.8404 13.9473C33.006 11.9648 35.4381 12.704 37.8035 13.4264C40.5687 14.2665 43.4172 15.1401 46.6656 12.5528C46.9321 12.3344 47.3319 12.3848 47.5484 12.6536C47.765 12.9224 47.715 13.3256 47.4485 13.544C43.6838 16.5346 40.2356 15.4929 37.4537 14.6361C35.1549 13.9305 33.3391 13.376 31.7233 14.8713L28.9581 17.6266C26.0596 20.4995 21.3287 19.9115 19.563 18.1138C18.5302 17.0722 18.5968 15.7281 19.6962 14.6193L30.7738 3.49726C36.221 -1.84534 44.6333 0.086735 47.6317 1.7836C49.6307 2.90924 51.6296 4.5221 53.3954 6.45418C58.9592 12.5024 61.7077 21.4907 55.2944 27.959L51.5963 31.6719C51.4631 31.8063 51.3131 31.8567 51.1466 31.8567Z" fill="#4F4F4F"/>
<path d="M8.01893 30.1093C7.85235 30.1093 7.70243 30.0421 7.58582 29.9245L3.88774 26.2116C-2.65886 19.6257 -0.0435497 10.8894 5.15375 5.58039C10.6842 -0.0814227 19.6962 -2.46711 26.2261 3.93393L28.7082 6.43722C28.9581 6.68923 28.9581 7.07565 28.7082 7.32766C28.4583 7.57967 28.0752 7.57967 27.8253 7.32766L25.3433 4.84116C19.1465 -1.25747 11.0007 1.41383 6.05328 6.47082C1.27243 11.343 -1.15964 19.3401 4.77062 25.3211L8.45204 29.0341C8.70191 29.2861 8.70191 29.6725 8.45204 29.9245C8.33543 30.0421 8.18551 30.1093 8.01893 30.1093Z" fill="#4F4F4F"/>
<path d="M48.931 39.1481C47.9315 39.1481 46.8654 38.7281 45.8659 37.6864L39.1861 30.731C38.9529 30.479 38.9529 30.0758 39.2027 29.8405C39.4526 29.5885 39.8357 29.6053 40.0856 29.8573L46.7655 36.8128C48.6811 38.8121 50.2803 37.5688 50.7134 37.132C51.8628 36.0232 52.2959 33.9903 51.0133 32.6295L36.7374 17.5425C36.5041 17.2905 36.5041 16.8873 36.754 16.652C37.0039 16.4168 37.4037 16.4168 37.6369 16.6688L51.9128 31.7558C53.7285 33.6711 53.1455 36.5104 51.5796 38.0393C50.88 38.7113 49.9472 39.1481 48.931 39.1481Z" fill="#4F4F4F"/>
<path d="M43.5006 44.2219C42.5011 44.2219 41.5016 43.8691 40.702 43.0291L33.3558 35.4184C33.1226 35.1664 33.1226 34.7631 33.3725 34.5279C33.6224 34.2927 34.0221 34.2927 34.2554 34.5447L41.6015 42.1554C42.8509 43.4491 44.7999 43.0627 45.9659 41.9202C46.9488 40.9458 47.4485 39.3329 45.8659 37.6864L38.6864 30.2102C38.4532 29.9582 38.4532 29.555 38.703 29.3197C38.9529 29.0845 39.336 29.0845 39.5859 29.3365L46.7655 36.8128C48.8477 38.9801 48.2981 41.3994 46.8322 42.8275C45.9493 43.6843 44.7166 44.2219 43.5006 44.2219Z" fill="#4F4F4F"/>
<path d="M37.6202 48.775C36.6207 48.775 35.6046 48.4222 34.7884 47.5653L31.1236 43.8356C30.8737 43.5836 30.8904 43.1972 31.1236 42.9452C31.3735 42.6932 31.7566 42.71 32.0065 42.9452L35.6712 46.6749C36.9372 47.9686 38.8529 47.6157 39.969 46.5237C40.9185 45.5829 41.3849 44.0036 39.8024 42.3403C39.5692 42.0883 39.5692 41.6851 39.8191 41.4499C40.069 41.2147 40.4688 41.2147 40.702 41.4667C42.7676 43.6508 42.2512 46.0365 40.8352 47.4309C40.0023 48.2542 38.8196 48.775 37.6202 48.775Z" fill="#4F4F4F"/>
<path d="M9.66811 38.4426C8.58534 38.4426 7.5692 38.0226 6.81959 37.2498L6.4198 36.8466C4.85394 35.2505 4.85394 32.68 6.4198 31.0839L11.5005 25.9597C12.2668 25.1869 13.2662 24.7669 14.349 24.7669C15.4318 24.7669 16.4479 25.1869 17.1975 25.9597L17.5973 26.363C18.3636 27.1358 18.78 28.1438 18.78 29.2359C18.78 30.3279 18.3636 31.3528 17.5973 32.1088L12.5166 37.233C11.767 38.0226 10.7509 38.4426 9.66811 38.4426ZM14.349 26.0438C13.5994 26.0438 12.8998 26.3294 12.3834 26.867L7.30267 31.9912C6.2199 33.0832 6.2199 34.8641 7.30267 35.9729L7.70246 36.3761C8.21886 36.897 8.9185 37.1994 9.66811 37.1994C10.4177 37.1994 11.1174 36.9138 11.6338 36.3761L16.7145 31.2519C17.2308 30.7311 17.5307 30.0255 17.5307 29.2695C17.5307 28.5134 17.2475 27.8078 16.7145 27.287L16.3313 26.867C15.8149 26.3294 15.0986 26.0438 14.349 26.0438C14.3657 26.0438 14.3657 26.0438 14.349 26.0438Z" fill="#4F4F4F"/>
<path d="M15.1985 43.8187C14.1158 43.8187 13.0996 43.3987 12.35 42.6259L11.9502 42.2226C11.184 41.4498 10.7675 40.4418 10.7675 39.3497C10.7675 38.2577 11.184 37.2328 11.9502 36.4768L20.046 28.3117C21.5619 26.7829 24.2438 26.7829 25.7597 28.3117L26.1595 28.7149C27.7254 30.2942 27.7254 32.8815 26.1595 34.4775L18.0637 42.6426C17.2975 43.3987 16.2813 43.8187 15.1985 43.8187ZM22.9112 28.3789C22.1616 28.3789 21.462 28.6645 20.9456 29.2021L12.8498 37.3673C12.3334 37.8881 12.0335 38.5937 12.0335 39.3497C12.0335 40.1058 12.3167 40.8114 12.8498 41.3322L13.2496 41.7354C14.299 42.7939 16.148 42.7939 17.1975 41.7354L25.2933 33.5703C26.3761 32.4783 26.3761 30.6974 25.2933 29.5886L24.8935 29.1853C24.3605 28.6813 23.6608 28.3789 22.9112 28.3789Z" fill="#4F4F4F"/>
<path d="M21.0622 48.8926C20.0294 48.8926 18.9966 48.4894 18.2137 47.6997L17.8139 47.2965C17.0476 46.5237 16.6311 45.5157 16.6311 44.4236C16.6311 43.3316 17.0476 42.3067 17.8139 41.5507L23.361 35.9561C24.9268 34.3768 27.4922 34.36 29.0747 35.9561L29.4745 36.3593C31.0403 37.9554 31.0403 40.5259 29.4745 42.1219L23.9274 47.7165C23.1278 48.4894 22.095 48.8926 21.0622 48.8926ZM26.2095 36.0065C25.4932 36.0065 24.7769 36.2753 24.2439 36.8297L18.6967 42.4243C18.1803 42.9452 17.8805 43.6508 17.8805 44.4068C17.8805 45.1628 18.1637 45.8685 18.6967 46.3893L19.0965 46.7925C20.1793 47.8845 21.945 47.8845 23.0445 46.7925L28.5916 41.1979C29.6744 40.1058 29.6744 38.325 28.5916 37.2161L28.1918 36.8129C27.6421 36.2921 26.9258 36.0065 26.2095 36.0065Z" fill="#4F4F4F"/>
<path d="M26.7759 54C25.6931 54 24.677 53.58 23.9274 52.8072L23.5276 52.4039C22.7613 51.6311 22.3449 50.6231 22.3449 49.531C22.3449 48.439 22.7613 47.4142 23.5276 46.6413L26.9258 43.1972C28.5083 41.6011 31.057 41.6179 32.6395 43.1972L33.0393 43.6004C34.6052 45.1797 34.6052 47.767 33.0393 49.363L29.6244 52.8072C28.8582 53.58 27.8587 54 26.7759 54ZM29.7743 43.2812C29.0581 43.2812 28.3418 43.55 27.8087 44.1044L24.4105 47.5486C23.8941 48.0694 23.5942 48.775 23.5942 49.531C23.5942 50.2871 23.8774 50.9927 24.4105 51.5135L24.8103 51.9167C25.8597 52.9752 27.7088 52.9584 28.7582 51.9167L32.1731 48.4726C33.2559 47.3806 33.2559 45.5829 32.1731 44.4908L31.79 44.0876C31.2069 43.5668 30.4906 43.2812 29.7743 43.2812Z" fill="#4F4F4F"/>
</svg>
